<svg width="320" height="30" xmlns="http://www.w3.org/2000/svg"><title>Layer 1</title><path fill="#2c2c2c" d="M318.667 20.642h-38.408c-26.732-.376-54.313-1.882-54.313-1.882l-1.6 1.506s-.658-1.883-2.447-1.883c-1.79 0-2.73 1.225-5.364 1.225-2.638 0-8.567-2.165-11.108-2.165s-2.92.094-2.92 0c0-.095-2.352 2.258-6.116 2.258-3.522 0-4.245-1.565-7.178-1.767-1.123-2.289-3.445-3.183-5.327-3.183-.918 0-2.334.331-3.666.996l-.168-.163c8.082-8.5 10.746-11.5 15.168-11.5 2.664 0 4.829 1.835 4.829 4.835 0 3.078-2.25 3.33-3.167 3.33-.583 0-.996-.252-1.165-.666.252-.252 1.003-.336 1.003-1.668s-1.003-1.829-2.004-1.829c-.996 0-2.335.833-2.335 2.832 0 1.667 1.669 3.496 3.666 3.496 5.004 0 5.671-3.832 5.671-5.495 0-1.337-.835-6.335-6.666-6.335-6.168 0-10.919 7.248-15 10.836l-.168-.169c.666-1.254.834-2.417.834-4.002 0-1.584-1.002-6.497-5.831-6.497-4.002 0-5.502 3.33-5.502 4.997 0 2.25 1.416 4.668 4.002 4.668 2.249 0 2.999-1.583 2.999-2.502 0-1.248-.42-2.333-1.667-2.333-1.248 0-1.668.749-1.668 2.004-.253.246 0 .664 0 .996-.667 0-2.166-.414-2.166-3 0-1.914 1.836-3.498 3.834-3.498 2.249 0 4.499 1.331 4.499 5.333 0 3.834-1.667 7.998-8.999 7.998-2.334 0-8.832-1.831-8.832-9.168 0-3.665 1.83-4.332 3.162-4.332 1.254 0 2.172.582 2.172 1.837 0 .834-.42 1.332-1.17 1.5 0-.666-.414-1.17-1.002-1.17-.666 0-1.164.833-1.164 1.5 0 .665.498 1.667 1.836 1.667.996 0 2.832-1.002 2.832-2.999 0-2.664-1.836-3.666-3.504-3.666-1.998 0-3.827 1.164-4.416 3.833h-.161c-.589-2.669-2.334-3.833-4.584-3.833-1.584 0-3.336 1.002-3.336 3.666 0 1.997 1.836 2.999 2.832 2.999 1.337 0 1.835-1.002 1.835-1.667 0-.667-.498-1.5-1.169-1.5-.666 0-.996.664-.996 1.337-.75-.167-1.17-.749-1.17-1.667 0-1.255.75-1.837 2.004-1.837 1.583 0 3.329.667 3.329 4.332 0 7.337-6.497 9.168-8.999 9.168-7.079 0-8.832-4.164-8.832-7.998 0-4.002 2.25-5.333 4.5-5.333 1.998 0 3.834 1.584 3.834 3.498 0 2.586-1.668 3-2.334 3 .084-.162.168-.332.168-.583v-.413c0-1.255-.42-2.004-1.668-2.004-1.332 0-1.668 1.085-1.668 2.333 0 .919.75 2.502 3 2.502 2.586 0 4.002-2.418 4.002-4.668 0-1.667-1.5-4.997-5.502-4.997-4.83 0-5.832 4.913-5.832 6.497 0 1.585.085 2.832.666 4.171l-.168.16c-3.995-3.833-8.663-10.996-14.999-10.996-5.747 0-6.497 4.998-6.497 6.335 0 1.663.582 5.495 5.501 5.495 2.25 0 3.834-1.583 3.834-3.496 0-1.999-1.338-2.832-2.334-2.832-1.002 0-2.004.497-2.004 1.829s.666 1.416 1.002 1.668c-.168.582-.582.834-1.164.834-.918 0-3.167-.168-3.167-3.498 0-3 2.165-4.835 4.829-4.835 4.254 0 7.17 3 14.999 11.5l-.161.163c-1.255-.665-2.67-.996-3.672-.996-1.942 0-4.146.894-5.202 3.18-2.983.184-3.692 1.77-7.239 1.77-3.765 0-6.116-2.353-6.116-2.258 0 .094-.379 0-2.92 0s-8.471 2.165-11.108 2.165c-2.634 0-3.575-1.225-5.364-1.225l-2.447 1.883-1.6-1.506s-27.581 1.506-54.313 1.882h-38.409s.048.753 0 .753h38.408c26.731.379 54.313 1.885 54.313 1.885l1.6-1.506s.658 1.882 2.447 1.882 2.73-1.224 5.364-1.224c2.638 0 8.567 2.165 11.108 2.165s2.92-.095 2.92 0c0 .093 2.352-2.26 6.116-2.26 3.527 0 4.246 1.568 7.188 1.767.992 2.279 3.12 3.313 5.253 3.313 3.252 0 5.003-2.417 5.003-4.331 0-1.92-.918-3-2.501-3-1.332 0-1.83 1.08-1.83 1.997 0 .667.33 2.082 1.998 1.836-.337.912-1.002 1.83-2.67 1.83-2.25 0-4.332-1.668-4.332-4.668 0-3.245 2.004-4.829 4.332-4.829.917 0 2.333.33 4.001.995 1.836.672 6.666 1.837 9.666 1.837 3.084 0 8.753-1.837 10.254-7.5h.077c1.5 5.663 7.254 7.5 10.17 7.5 3.084 0 7.997-1.332 9.833-1.999 1.669-.587 3.084-.833 3.996-.833 2.334 0 4.338 1.584 4.338 4.829 0 2.916-2.166 4.668-4.5 4.668-1.584 0-2.165-1.164-2.502-1.83 1.668.246 1.998-1.085 1.998-2.004 0-.918-.498-1.829-1.83-1.829-1.583 0-2.502 1.08-2.502 3 0 1.914 1.836 4.163 4.836 4.163 2.175 0 4.344-.968 5.376-3.15 2.891-.216 3.627-1.761 7.129-1.761 3.765 0 6.116 2.353 6.116 2.26 0-.095.379 0 2.92 0s8.471-2.165 11.108-2.165c2.634 0 3.574 1.224 5.364 1.224 1.789 0 2.447-1.882 2.447-1.882l1.6 1.506s27.58-1.506 54.313-1.885h38.408c-.047-.001.001-.754.001-.754z"/></svg>