<svg width="320" height="30" xmlns="http://www.w3.org/2000/svg"><title>Layer 1</title><path fill="#2c2c2c" d="M318.667 20.642H280.26c-26.733-.376-54.314-1.882-54.314-1.882l-1.6 1.506s-.658-1.883-2.447-1.883c-1.79 0-2.73 1.225-5.37 1.225-2.637 0-8.566-2.165-11.107-2.165s-2.92.094-2.92 0c0-.095-2.352 2.258-6.116 2.258-3.52 0-4.245-1.56-7.178-1.762-1.124-2.29-3.446-3.183-5.328-3.183-.918 0-2.334.332-3.666.997l-.17-.163c8.083-8.5 10.747-11.5 15.17-11.5 2.663 0 4.83 1.834 4.83 4.834 0 3.08-2.25 3.33-3.17 3.33-.582 0-.995-.25-1.164-.665.252-.253 1.003-.337 1.003-1.67s-1.004-1.83-2.005-1.83c-.995 0-2.334.834-2.334 2.833 0 1.666 1.67 3.495 3.668 3.495 5.004 0 5.67-3.832 5.67-5.495 0-1.338-.834-6.336-6.665-6.336-6.17 0-10.92 7.248-15 10.836l-.17-.17c.666-1.253.834-2.416.834-4 0-1.585-1.004-6.498-5.83-6.498-4.005 0-5.505 3.33-5.505 4.997 0 2.25 1.415 4.666 4 4.666 2.25 0 3-1.583 3-2.502 0-1.248-.42-2.333-1.667-2.333-1.25 0-1.67.75-1.67 2.006-.253.245 0 .663 0 .995-.667 0-2.166-.412-2.166-3 0-1.912 1.836-3.496 3.834-3.496 2.248 0 4.498 1.33 4.498 5.332 0 3.833-1.668 7.997-9 7.997-2.334 0-8.83-1.83-8.83-9.17 0-3.665 1.83-4.332 3.16-4.332 1.254 0 2.172.582 2.172 1.837 0 .835-.42 1.333-1.17 1.5 0-.665-.413-1.17-1-1.17-.667 0-1.165.834-1.165 1.5s.498 1.668 1.836 1.668c.998 0 2.834-1.003 2.834-3 0-2.664-1.836-3.666-3.504-3.666-2 0-3.83 1.164-4.418 3.833h-.16c-.59-2.67-2.335-3.834-4.585-3.834-1.585 0-3.337 1.002-3.337 3.666 0 1.997 1.837 3 2.833 3 1.337 0 1.835-1.003 1.835-1.668 0-.667-.5-1.5-1.17-1.5-.666 0-.996.664-.996 1.337-.75-.17-1.17-.75-1.17-1.67 0-1.253.75-1.835 2.005-1.835 1.582 0 3.33.667 3.33 4.332 0 7.337-6.5 9.168-9 9.168-7.08 0-8.833-4.164-8.833-7.998 0-4.002 2.25-5.333 4.5-5.333 1.998 0 3.834 1.585 3.834 3.5 0 2.585-1.67 3-2.334 3 .084-.163.168-.333.168-.584v-.415c0-1.255-.42-2.004-1.668-2.004-1.332 0-1.668 1.087-1.668 2.335 0 .92.75 2.503 3 2.503 2.586 0 4.002-2.418 4.002-4.668 0-1.67-1.5-5-5.503-5-4.83 0-5.832 4.914-5.832 6.498 0 1.584.086 2.83.667 4.17l-.167.16c-3.995-3.833-8.663-10.996-15-10.996-5.746 0-6.496 5-6.496 6.336 0 1.662.58 5.494 5.5 5.494 2.25 0 3.834-1.583 3.834-3.496 0-2-1.34-2.83-2.334-2.83-1.004 0-2.006.496-2.006 1.83s.666 1.414 1.002 1.666c-.168.582-.582.834-1.164.834-.917 0-3.166-.168-3.166-3.498 0-3 2.165-4.836 4.83-4.836 4.253 0 7.17 3 14.998 11.5l-.16.163c-1.256-.666-2.67-.997-3.673-.997-1.94 0-4.145.895-5.2 3.18-2.984.185-3.693 1.77-7.24 1.77-3.765 0-6.116-2.352-6.116-2.257 0 .095-.38 0-2.92 0s-8.47 2.166-11.107 2.166c-2.634 0-3.575-1.224-5.364-1.224l-2.447 1.884-1.6-1.507s-27.58 1.505-54.313 1.88H1.33s.05.753 0 .753h38.41c26.73.38 54.31 1.886 54.31 1.886l1.6-1.507s.66 1.882 2.448 1.882 2.73-1.225 5.367-1.225c2.638 0 8.567 2.164 11.108 2.164s2.92-.095 2.92 0c0 .093 2.352-2.26 6.116-2.26 3.526 0 4.245 1.568 7.187 1.767.99 2.28 3.12 3.314 5.252 3.314 3.25 0 5.002-2.417 5.002-4.33 0-1.92-.918-3-2.5-3-1.333 0-1.83 1.08-1.83 1.996 0 .666.33 2.08 1.997 1.835-.338.91-1.003 1.83-2.67 1.83-2.25 0-4.333-1.67-4.333-4.67 0-3.244 2.004-4.828 4.332-4.828.916 0 2.332.33 4 .995 1.836.67 6.666 1.837 9.666 1.837 3.083 0 8.752-1.84 10.253-7.5h.08c1.5 5.66 7.252 7.5 10.17 7.5 3.082 0 7.995-1.334 9.83-2 1.67-.588 3.086-.834 3.998-.834 2.332 0 4.336 1.584 4.336 4.83 0 2.915-2.167 4.667-4.5 4.667-1.585 0-2.166-1.164-2.503-1.83 1.67.246 2-1.085 2-2.004 0-.92-.497-1.83-1.83-1.83-1.58 0-2.5 1.08-2.5 3 0 1.914 1.835 4.163 4.835 4.163 2.175 0 4.344-.97 5.376-3.15 2.893-.217 3.63-1.762 7.13-1.762 3.766 0 6.117 2.354 6.117 2.26 0-.094.38 0 2.92 0s8.47-2.164 11.108-2.164c2.634 0 3.574 1.224 5.364 1.224s2.446-1.882 2.446-1.882l1.6 1.506s27.58-1.504 54.313-1.883h38.407c-.046 0 0-.752 0-.752z"/></svg>