<svg width="320" height="30" xmlns="http://www.w3.org/2000/svg"><title>Layer 1</title><path fill="#2c2c2c" d="M318.667 20.642H280.26c-26.733-.376-54.314-1.882-54.314-1.882l-1.6 1.506s-.658-1.883-2.447-1.883c-1.79 0-2.73 1.225-5.37 1.225s-8.57-2.165-11.11-2.165-2.92.094-2.92 0c0-.095-2.35 2.258-6.12 2.258-3.52 0-4.246-1.56-7.18-1.76-1.123-2.29-3.445-3.18-5.327-3.18-.92 0-2.335.33-3.667 1l-.17-.163c8.083-8.5 10.747-11.5 15.17-11.5 2.663 0 4.83 1.835 4.83 4.835 0 3.08-2.25 3.33-3.17 3.33-.58 0-.995-.25-1.164-.665.25-.254 1.002-.338 1.002-1.67s-1.006-1.83-2.007-1.83c-.995 0-2.334.833-2.334 2.832 0 1.665 1.67 3.494 3.667 3.494 5.006 0 5.67-3.83 5.67-5.494 0-1.338-.832-6.336-6.663-6.336-6.17 0-10.92 7.247-15 10.835l-.17-.17c.665-1.254.833-2.417.833-4 0-1.586-1.003-6.5-5.83-6.5-4.004 0-5.504 3.33-5.504 4.997 0 2.25 1.414 4.668 4 4.668 2.25 0 3-1.58 3-2.5 0-1.25-.42-2.333-1.668-2.333-1.25 0-1.67.75-1.67 2.005-.255.244 0 .662 0 .994-.67 0-2.168-.413-2.168-3 0-1.913 1.835-3.497 3.833-3.497 2.25 0 4.5 1.33 4.5 5.334 0 3.832-1.668 7.996-9 7.996-2.334 0-8.83-1.83-8.83-9.17 0-3.666 1.83-4.333 3.16-4.333 1.254 0 2.172.58 2.172 1.835 0 .837-.42 1.335-1.17 1.5 0-.663-.414-1.17-1-1.17-.668 0-1.166.836-1.166 1.5s.5 1.67 1.835 1.67c1 0 2.835-1.003 2.835-3 0-2.664-1.835-3.666-3.503-3.666-2 0-3.83 1.162-4.417 3.83h-.16c-.59-2.67-2.336-3.832-4.586-3.832-1.585 0-3.337 1-3.337 3.665 0 1.996 1.838 3 2.834 3 1.34 0 1.838-1.004 1.838-1.67 0-.666-.5-1.5-1.17-1.5-.666 0-.996.665-.996 1.338-.75-.17-1.17-.75-1.17-1.67 0-1.25.75-1.832 2.006-1.832 1.58 0 3.33.667 3.33 4.332 0 7.336-6.5 9.167-9 9.167-7.08 0-8.834-4.165-8.834-8 0-4.002 2.25-5.333 4.5-5.333 1.998 0 3.834 1.585 3.834 3.5 0 2.585-1.67 3-2.333 3 .084-.163.168-.333.168-.584v-.41c0-1.254-.42-2.003-1.667-2.003-1.332 0-1.668 1.088-1.668 2.336 0 .92.75 2.502 3 2.502 2.584 0 4-2.42 4-4.67 0-1.67-1.5-5-5.503-5-4.83 0-5.83 4.915-5.83 6.5 0 1.583.086 2.83.67 4.17l-.17.16c-3.994-3.834-8.66-10.997-15-10.997-5.745 0-6.495 5-6.495 6.336 0 1.66.58 5.494 5.5 5.494 2.25 0 3.834-1.583 3.834-3.496 0-2-1.34-2.83-2.334-2.83-1.003 0-2.005.496-2.005 1.83s.665 1.414 1 1.666c-.167.582-.58.834-1.163.834-.916 0-3.165-.168-3.165-3.498 0-3 2.168-4.837 4.83-4.837 4.256 0 7.17 3 15 11.5l-.16.163c-1.255-.666-2.67-.997-3.672-.997-1.94 0-4.145.893-5.2 3.18-2.984.183-3.693 1.77-7.24 1.77-3.765 0-6.116-2.354-6.116-2.26 0 .096-.38 0-2.92 0s-8.47 2.167-11.107 2.167c-2.633 0-3.574-1.224-5.363-1.224l-2.45 1.884-1.6-1.507s-27.58 1.505-54.313 1.88H1.33s.05.753 0 .753h38.41c26.73.38 54.31 1.887 54.31 1.887l1.6-1.507s.66 1.882 2.448 1.882 2.73-1.225 5.367-1.225c2.638 0 8.567 2.164 11.108 2.164s2.92-.094 2.92 0 2.352-2.26 6.116-2.26c3.52 0 4.24 1.57 7.18 1.768.99 2.28 3.12 3.314 5.25 3.314 3.25 0 5.003-2.42 5.003-4.33 0-1.92-.92-3-2.5-3-1.334 0-1.83 1.08-1.83 1.992 0 .666.33 2.08 1.996 1.835-.338.91-1.003 1.83-2.67 1.83-2.25 0-4.333-1.67-4.333-4.67 0-3.246 2.004-4.83 4.332-4.83.915 0 2.33.33 4 .994 1.835.67 6.665 1.838 9.665 1.838 3.082 0 8.75-1.84 10.252-7.5h.08c1.5 5.66 7.252 7.5 10.17 7.5 3.082 0 7.995-1.334 9.83-2 1.67-.588 3.086-.834 3.998-.834 2.333 0 4.337 1.583 4.337 4.83 0 2.914-2.168 4.666-4.5 4.666-1.586 0-2.167-1.164-2.504-1.83 1.67.246 2-1.085 2-2.004 0-.92-.498-1.83-1.83-1.83-1.58 0-2.5 1.08-2.5 3 0 1.913 1.834 4.162 4.834 4.162 2.175 0 4.344-.97 5.376-3.15 2.894-.217 3.63-1.762 7.13-1.762 3.767 0 6.118 2.355 6.118 2.26 0-.093.38 0 2.92 0s8.47-2.163 11.11-2.163c2.634 0 3.574 1.224 5.364 1.224s2.446-1.88 2.446-1.88l1.6 1.505s27.58-1.503 54.315-1.882h38.408c-.044 0 0-.752 0-.752z"/></svg>