<svg baseProfile="basic" xmlns="http://www.w3.org/2000/svg" xmlns:xlink="http://www.w3.org/1999/xlink" width="50" height="30" viewBox="0 0 50 30"><defs><rect id="a" width="50" height="30"/></defs><clipPath id="b"><use xlink:href="#a" overflow="visible"/></clipPath><rect clip-path="url(#b)" fill="#fff" width="50" height="30"/><defs><rect id="c" width="50" height="30"/></defs><clipPath id="d"><use xlink:href="#c" overflow="visible"/></clipPath><polygon clip-path="url(#d)" fill="#BD0935" points="33.48,10.847 50,1.335 50,0 48.86,0 30.021,10.847"/><defs><rect id="e" width="50" height="30"/></defs><clipPath id="f"><use xlink:href="#e" overflow="visible"/></clipPath><polygon clip-path="url(#f)" fill="#BD0935" points="32.698,19.757 50,29.713 50,27.724 36.155,19.757"/><defs><rect id="g" width="50" height="30"/></defs><clipPath id="h"><use xlink:href="#g" overflow="visible"/></clipPath><polygon clip-path="url(#h)" fill="#BD0935" points="0,2.286 14.799,10.847 18.257,10.847 0,0.292"/><defs><rect id="i" width="50" height="30"/></defs><clipPath id="j"><use xlink:href="#i" overflow="visible"/></clipPath><polygon clip-path="url(#j)" fill="#BD0935" points="17.475,19.757 0,29.827 0,30 3.155,30 20.934,19.757"/><defs><rect id="k" width="50" height="30"/></defs><clipPath id="l"><use xlink:href="#k" overflow="visible"/></clipPath><polygon clip-path="url(#l)" fill="#222974" points="46.58,0 29.072,0 29.072,10.086"/><defs><rect id="m" width="50" height="30"/></defs><clipPath id="n"><use xlink:href="#m" overflow="visible"/></clipPath><polygon clip-path="url(#n)" fill="#222974" points="21.342,0 3.906,0 21.342,10.086"/><defs><rect id="o" width="50" height="30"/></defs><clipPath id="p"><use xlink:href="#o" overflow="visible"/></clipPath><polygon clip-path="url(#p)" fill="#222974" points="50,10.847 50,3.965 38.125,10.847"/><defs><rect id="q" width="50" height="30"/></defs><clipPath id="r"><use xlink:href="#q" overflow="visible"/></clipPath><polygon clip-path="url(#r)" fill="#222974" points="50,26.564 50,19.757 38.125,19.757"/><defs><rect id="s" width="50" height="30"/></defs><clipPath id="t"><use xlink:href="#s" overflow="visible"/></clipPath><polygon clip-path="url(#t)" fill="#222974" points="4.895,30 21.342,30 21.342,20.518"/><defs><rect id="u" width="50" height="30"/></defs><clipPath id="v"><use xlink:href="#u" overflow="visible"/></clipPath><polygon clip-path="url(#v)" fill="#222974" points="29.072,30 45.571,30 29.072,20.518"/><defs><rect id="w" width="50" height="30"/></defs><clipPath id="x"><use xlink:href="#w" overflow="visible"/></clipPath><polygon clip-path="url(#x)" fill="#222974" points="0,19.757 0,26.871 12.29,19.757"/><defs><rect id="y" width="50" height="30"/></defs><clipPath id="z"><use xlink:href="#y" overflow="visible"/></clipPath><polygon clip-path="url(#z)" fill="#222974" points="0,10.847 12.29,10.847 0,3.722"/><defs><rect id="A" width="50" height="30"/></defs><clipPath id="B"><use xlink:href="#A" overflow="visible"/></clipPath><polygon clip-path="url(#B)" fill="#BD0935" points="22.888,0 22.888,12.63 0,12.63 0,17.975 22.888,17.975 22.888,30 27.527,30 27.527,17.975 50,17.975 50,12.63 27.527,12.63 27.527,0"/></svg>