<svg baseProfile="basic" xmlns="http://www.w3.org/2000/svg" xmlns:xlink="http://www.w3.org/1999/xlink" width="50" height="30" viewBox="0 0 50 30"><defs><rect id="a" y="-.006" width="50" height="30.005"/></defs><clipPath id="b"><use xlink:href="#a" overflow="visible"/></clipPath><rect y="-.006" clip-path="url(#b)" fill="#CB2023" width="50" height="30.005"/><defs><rect id="c" y="-.006" width="50" height="30.005"/></defs><clipPath id="d"><use xlink:href="#c" overflow="visible"/></clipPath><polygon clip-path="url(#d)" fill="#F7DE2A" points="4.812,10.854 5.751,7.858 3.281,6.003 6.34,5.997 7.292,3.007 8.244,5.998 11.303,6.005 8.83,7.86 9.768,10.855 7.291,9.009"/><defs><rect id="e" y="-.006" width="50" height="30.005"/></defs><clipPath id="f"><use xlink:href="#e" overflow="visible"/></clipPath><polygon clip-path="url(#f)" fill="#F7DE2A" points="13.337,12.473 14.37,12.898 15.087,12.024 15.011,13.165 16.041,13.597 14.964,13.875 14.882,15.016 14.292,14.047 13.212,14.32 13.925,13.444"/><defs><rect id="g" y="-.006" width="50" height="30.005"/></defs><clipPath id="h"><use xlink:href="#g" overflow="visible"/></clipPath><polygon clip-path="url(#h)" fill="#F7DE2A" points="18.925,6.72 17.829,6.522 17.304,7.531 17.147,6.399 16.052,6.196 17.051,5.693 16.899,4.559 17.674,5.382 18.675,4.882 18.154,5.894"/><defs><rect id="i" y="-.006" width="50" height="30.005"/></defs><clipPath id="j"><use xlink:href="#i" overflow="visible"/></clipPath><polygon clip-path="url(#j)" fill="#F7DE2A" points="16.597,11.845 16.939,10.756 16.041,10.081 17.154,10.078 17.5,8.992 17.846,10.08 18.959,10.082 18.061,10.756 18.4,11.845 17.5,11.175"/><defs><rect id="k" y="-.006" width="50" height="30.005"/></defs><clipPath id="l"><use xlink:href="#k" overflow="visible"/></clipPath><polygon clip-path="url(#l)" fill="#F7DE2A" points="13.393,1.901 14.401,2.382 15.162,1.547 15.029,2.683 16.036,3.17 14.944,3.39 14.805,4.526 14.265,3.525 13.173,3.741 13.929,2.902"/></svg>