<svg xmlns="http://www.w3.org/2000/svg" width="64" height="64" viewBox="1 1 64 64" enable-background="new 1 1 64 64"><linearGradient id="a" gradientUnits="userSpaceOnUse" x1="33.02" y1=".095" x2="33.02" y2="64.095" gradientTransform="matrix(1 0 0 -1 -.02 65.095)"><stop offset="0" stop-color="#474747"/><stop offset="1" stop-color="#5E5E5E"/></linearGradient><path fill="url(#a)" d="M10.334 10.371c-6.044 6.045-9.334 14.081-9.334 22.629s3.29 16.582 9.334 22.628c6.042 6.045 14.079 9.372 22.625 9.372 8.548 0 16.586-3.327 22.628-9.372 6.045-6.046 9.413-14.08 9.413-22.628s-3.368-16.584-9.413-22.629c-6.042-6.044-14.041-9.371-22.587-9.371-8.548 0-16.624 3.327-22.666 9.371"/><linearGradient id="b" gradientUnits="userSpaceOnUse" x1="33.02" y1=".983" x2="33.02" y2="63.207" gradientTransform="matrix(1 0 0 -1 -.02 65.095)"><stop offset="0" stop-color="#919191"/><stop offset="1" stop-color="#C6C6C6"/></linearGradient><path fill="url(#b)" d="M33 5c-15.43 0-28 12.569-28 28 0 15.432 12.529 28 27.96 28 15.431 0 28.04-12.568 28.04-28 0-15.431-12.568-28-28-28z"/><linearGradient id="c" gradientUnits="userSpaceOnUse" x1="33.28" y1="2.587" x2="33.28" y2="30.538" gradientTransform="matrix(1 0 0 -1 -.02 65.095)"><stop offset="0" stop-color="#fff"/><stop offset="1"/></linearGradient><path opacity=".2" fill="url(#c)" enable-background="new" d="M32.96 61c14.286 0 26.146-10.775 27.827-24.619-8.967 8.764-18.135 6.769-27.787 4.277-8.59-2.219-17.611-4.749-27.268-1.311 2.879 12.385 13.982 21.653 27.228 21.653z"/><defs><filter filterUnits="userSpaceOnUse" x="5" y="5" width="56" height="56"><feColorMatrix values="1 0 0 0 0 0 1 0 0 0 0 0 1 0 0 0 0 0 1 0"/></filter></defs><mask maskUnits="userSpaceOnUse" x="5" y="5" width="56" height="56" id="e"><radialGradient id="d" cx="33.02" cy="32.095" r="28" gradientTransform="matrix(1 0 0 -1 -.02 65.095)" gradientUnits="userSpaceOnUse"><stop offset="0" stop-color="#fff"/><stop offset="1"/></radialGradient><path fill="url(#d)" d="M33 5c-15.43 0-28 12.569-28 28 0 15.432 12.529 28 27.96 28 15.431 0 28.04-12.568 28.04-28 0-15.431-12.568-28-28-28z"/></mask><path mask="url(#e)" fill="#fff" d="M33 5c-15.43 0-28 12.569-28 28 0 15.432 12.529 28 27.96 28 15.431 0 28.04-12.568 28.04-28 0-15.431-12.568-28-28-28z"/><defs><filter filterUnits="userSpaceOnUse" x="5" y="5" width="56" height="56"><feColorMatrix values="1 0 0 0 0 0 1 0 0 0 0 0 1 0 0 0 0 0 1 0"/></filter></defs><mask maskUnits="userSpaceOnUse" x="5" y="5" width="56" height="56" id="g"><radialGradient id="f" cx="33.02" cy="32.095" r="28" gradientTransform="matrix(1 0 0 -1 -.02 65.095)" gradientUnits="userSpaceOnUse"><stop offset="0" stop-color="#fff"/><stop offset="1"/></radialGradient><path fill="url(#f)" d="M33 5c-15.43 0-28 12.568-28 28s12.53 28 27.961 28c15.43 0 28.039-12.568 28.039-28s-12.568-28-28-28z"/></mask><path opacity=".7" mask="url(#g)" fill="#fff" enable-background="new" d="M33 5c-15.43 0-28 12.568-28 28s12.53 28 27.961 28c15.43 0 28.039-12.568 28.039-28s-12.568-28-28-28z"/><linearGradient id="h" gradientUnits="userSpaceOnUse" x1="33.02" y1="17.095" x2="33.02" y2="48.095" gradientTransform="matrix(1 0 0 -1 -.02 65.095)"><stop offset="0" stop-color="#005DA2"/><stop offset="1" stop-color="#3197DF"/></linearGradient><path fill="url(#h)" d="M34 17v2c4.837 0-.713 7.796-2 9-1.287-1.204-6.763-8.188-2-8v-2h-13v2c5.112 0 8.246 12.031 8.246 12.031s-3.497 11.969-8.246 11.969v2h12v-2c-5.334 0 1.713-7.796 3-9 1.287 1.204 9.332 11 4 11v2h13v-2c-5 0-11.154-13.969-11.154-13.969s4.832-13.031 9.154-13.031v-2h-13z"/><linearGradient id="i" gradientUnits="userSpaceOnUse" x1="33.02" y1="17.095" x2="33.02" y2="46.595" gradientTransform="matrix(1 0 0 -1 -.02 65.095)"><stop offset="0" stop-color="#002C60"/><stop offset="1" stop-color="#1264B5"/></linearGradient><path fill="url(#i)" d="M37.846 32.031s4.832-13.531 9.154-13.531v.5c-4.322 0-9.154 13.031-9.154 13.031zm-3.846-13.531v.5c4.837 0-.713 7.796-2 9 1.287-1.204 7.958-9.5 2-9.5zm-2 9.5c-1.287-1.204-6.763-8.188-2-8v-.5c-5.917 0 .713 7.296 2 8.5zm-6.754 4.031s-3.134-12.531-8.246-12.531v.5c5.112 0 8.246 12.031 8.246 12.031zm10.754 13.969c5.958 0-2.713-10.42-4-11.624-1.287 1.204-8.917 9.624-3 9.624-5.334 0 1.713-7.796 3-9 1.287 1.204 9.332 11 4 11zm-19 0h12v-1h-12v1zm19 1v1h13v-1h-13z"/><linearGradient id="j" gradientUnits="userSpaceOnUse" x1="23.987" y1="34.989" x2="37.941" y2="34.989" gradientTransform="matrix(1 0 0 -1 -.02 65.095)"><stop offset="0" stop-color="#03FFFF" stop-opacity=".51"/><stop offset=".303" stop-color="#61EFFF"/><stop offset=".7" stop-color="#CDF0FF"/><stop offset="1" stop-color="#fff" stop-opacity="0"/></linearGradient><polygon opacity=".6" fill="url(#j)" enable-background="new" points="23.967,28.019 24.666,30.04 37.919,32.193 37.846,32.031 37.921,31.833"/><defs><filter filterUnits="userSpaceOnUse" x="16" y="16.285" width="30.714" height="30.715"><feColorMatrix values="1 0 0 0 0 0 1 0 0 0 0 0 1 0 0 0 0 0 1 0"/></filter></defs><mask maskUnits="userSpaceOnUse" x="16" y="16.285" width="30.714" height="30.715" id="l"><linearGradient id="k" gradientUnits="userSpaceOnUse" x1="102.252" y1="154.956" x2="102.252" y2="172.458" gradientTransform="matrix(.968 .251 .316 -1.22 -117.432 193.426)"><stop offset="0"/><stop offset="1" stop-color="#fff"/></linearGradient><polygon opacity=".4" fill="url(#k)" enable-background="new" points="49.292,34.882 11.863,25.175 17.4,3.822 54.829,13.529"/><path fill="#fff" d="M34 17v1.5c5.958 0-.713 8.296-2 9.5-1.287-1.204-7.917-8.5-2-8.5v-1.5h-13v1.5c5.112 0 8.246 12.531 8.246 12.531s-3.497 11.969-8.246 11.969v2h12v-2c-5.917 0 1.713-8.42 3-9.624 1.287 1.204 9.958 11.624 4 11.624v2h13v-2c-5 0-11.154-13.969-11.154-13.969s4.832-13.531 9.154-13.531v-1.5h-13z"/></mask><radialGradient id="m" cx="31.377" cy="33.452" r="15.357" gradientTransform="matrix(1 0 0 -1 -.02 65.095)" gradientUnits="userSpaceOnUse"><stop offset="0" stop-color="#00E3E8"/><stop offset="1" stop-color="#59B3FF" stop-opacity="0"/></radialGradient><path opacity=".9" mask="url(#l)" fill="url(#m)" enable-background="new" d="M31.357 16.285c-8.462 0-15.357 6.895-15.357 15.358 0 8.462 6.872 15.357 15.336 15.357 8.461 0 15.378-6.895 15.378-15.357s-6.892-15.358-15.357-15.358z"/></svg>