<?xml version="1.0" encoding="utf-8"?>
<svg version="1.1" id="avatar-developer" xmlns="http://www.w3.org/2000/svg" xmlns:xlink="http://www.w3.org/1999/xlink" x="0px"
	 y="0px" width="100px" height="100px" viewBox="0 0 100 100" style="enable-background:new 0 0 100 100;" xml:space="preserve">
<style type="text/css">
<![CDATA[
	.st0{fill:#AAAAAA;}
	.st1{fill:#F2F2F2;}
	.st2{fill:#FFC088;stroke:#FFC088;stroke-width:0.75;}
	.st3{opacity:0.1;fill:#FFFFFF;enable-background:new;}
	.st4{fill:#FCFBD0;}
	.st5{fill:#603813;}
	.st6{fill:#FFC088;}
	.st7{fill:#FFE2B5;}
	.st8{fill:#FFFFFF;}
	.st9{fill:#323E4C;}
	.st10{fill:#445566;}
]]>
</style>
<circle class="st0" cx="50" cy="50" r="50"/>
<path class="st7" d="M78.7841797,74.6015625C77.6201172,69.5595703,58.34375,64.6279297,58.34375,64.6279297v-9.4785156h-8.3134766
	h-9.5v9.4785156c0,0-19.0732422,4.9316406-20.2373047,9.9736328c-1.1630859,5.0419922,29.7373047,23.9287109,29.7373047,23.9287109
	S79.9482422,79.6435547,78.7841797,74.6015625z"/>
<path class="st10" d="M49.9990234,100.0009766c12.2529297,0,23.46875-4.4140625,32.1640625-11.7294922
	c-1.0654297-4.3076172-2.6660156-10.8203125-3.4072266-14.0322266c-0.8310547-3.5986328-10.8662109-7.1396484-16.5488281-8.8730469
	c-0.3789063-0.0117188-0.7558594-0.0175781-1.1318359-0.0117188l-11.0449219,3.8671875l-11.8828125-3.5048828
	c-0.4951172-0.0068359-0.9931641,0.0058594-1.4921875,0.0273438c-5.6396484,1.7382813-15.5341797,5.2685547-16.3623047,8.8574219
	c-0.6992188,3.0322266-1.9824219,9.0068359-2.8955078,13.2910156
	C26.1523438,95.4316406,37.5390625,100.0009766,49.9990234,100.0009766z"/>
<polygon class="st6" points="58.34375,57.1962891 52.4931641,59.6699219 40.5302734,63.0449219 40.5302734,55.1494141 
	58.34375,55.1494141 "/>
<path class="st7" d="M64.8447266,21.8535156L64.8447266,21.8535156 M64.8330078,19.5224609h-0.0009766H35.4248047
	c-0.7236328,0-1.4130859,0.1201172-1.8974609,0.6572266c-0.4863281,0.5361328-0.7197266,1.1611328-0.6474609,1.8798828
	l3.0078125,29.6171875c0.0869141,0.8554688,0.5966797,1.5869141,1.3583984,1.9853516l8.4902344,4.6025391
	c0.3662109,0.1914063,0.7734375,0.4482422,1.1865234,0.4482422h5.8759766c0.3564453,0,0.7089844-0.2431641,1.0351563-0.3867188
	l8.0126953-4.8955078c0.8164063-0.3623047,1.3847656-1.1621094,1.5009766-2.046875l4.0097656-29.2412109
	c0.0214844-0.1347656,0.0332031-0.0966797,0.0332031-0.2373047C67.390625,20.4921875,66.2460938,19.5224609,64.8330078,19.5224609
	L64.8330078,19.5224609z"/>
<path class="st7" d="M46.9228516,56.9316406c-0.2060547,0-0.4091797,0.0332031-0.5927734-0.0625l-8.4902344-4.40625
	c-0.3808594-0.1982422-0.6357422-0.5546875-0.6787109-0.9814453l-3.0087891-29.6542969
	c-0.0371094-0.3603516,0.0810547-0.8701172,0.3242188-1.1386719c0.2421875-0.2675781,0.5859375-0.5722656,0.9482422-0.5722656
	h29.4072266c0.3681641,0,0.7177734,0.3154297,0.9619141,0.5927734c0.2421875,0.2763672,0.3535156,0.7236328,0.3056641,1.0878906
	l-4.0195313,30.2373047c-0.0595703,0.4423828-0.3427734,0.8398438-0.75,1.0214844l-8.0126953,3.8398438
	c-0.1640625,0.0712891-0.3398438,0.0361328-0.5185547,0.0361328H46.9228516z"/>
<path class="st2" d="M49.7753906,49.5712891c-1.4707031,0-4.9970703,0.6015625-4.9970703,0.6015625
	c1.7626953,1.1933594,4.9970703,2.1816406,4.9970703,2.1816406s3.2333984-0.9882813,4.9970703-2.1816406
	C54.7724609,50.1728516,51.2441406,49.5712891,49.7753906,49.5712891z"/>
<path class="st8" d="M46.0830078,50.4707031c0,0,2.9404297,0.0371094,7.3837891,0
	C53.4667969,50.4707031,50.4404297,51.8623047,46.0830078,50.4707031z"/>
<polygon class="st5" points="39.6669922,31.7167969 46.8876953,32.7646484 46.5839844,34.3691406 38.1230469,33.3359375 "/>
<polygon class="st5" points="60.3291016,31.9238281 53.0927734,32.8574219 53.3710938,34.4677734 61.8466797,33.5654297 "/>
<path class="st4" d="M66.2880859,15.3623047c0,0-9.1542969,9.9794922-16.7314453,10.3115234
	c-7.5761719,0.3330078-14.4306641,3.6601563-15.6787109,8.6494141
	c-1.2460938,4.9902344-11.8359375-21.8720703,12.4160156-24.6162109
	C60.9902344,8.0429688,66.2880859,15.3623047,66.2880859,15.3623047z"/>
<path class="st7" d="M35.1201172,34.8671875c0,0-5.171875-2.5146484-4.5439453,1.8847656
	c0.6279297,4.3984375,4.1767578,7.0175781,4.9169922,7.0693359C36.2324219,43.875,35.1201172,34.8671875,35.1201172,34.8671875z"/>
<path class="st7" d="M64.5341797,34.8671875c0,0,5.1708984-2.5146484,4.5429688,1.8847656
	c-0.6279297,4.3984375-4.1767578,7.0175781-4.9169922,7.0693359C63.4208984,43.875,64.5341797,34.8671875,64.5341797,34.8671875z"/>
<path class="st4" d="M63.5703125,14.8027344c0,0,0,1.2470703,3.2070313,1.6035156
	c3.2060547,0.3554688,0.0449219,17.3349609,0.0449219,17.3349609l-2.6933594,4.9472656
	c0.1455078-7.9375-4.8339844-16.5810547-4.8339844-16.5810547S62.8134766,14.9589844,63.5703125,14.8027344z"/>
<path class="st4" d="M42.0458984,26.7617188c0,0-8.9833984,3.8496094-5.4541016,12.03125
	c0,0-3.6894531-2.7265625-2.8876953-8.8222656"/>
<path class="st6" d="M59.1611328,37.0732422c0,0-3.4404297-1.4814453-5.2519531,0.7060547
	C53.9091797,37.7792969,56.9335938,40.7255859,59.1611328,37.0732422z"/>
<path class="st6" d="M40.3447266,37.0732422c0,0,3.4404297-1.4814453,5.2519531,0.7060547
	C45.5966797,37.7792969,42.5722656,40.7255859,40.3447266,37.0732422z"/>
<path class="st9" d="M62.5546875,34.8984375C62.4755859,34.8183594,62.359375,34.7714844,62.2119141,34.75
	c-0.6572266-0.0898438-1.3095703-0.2285156-1.9677734-0.265625c-1.5195313-0.0878906-3.0400391-0.1542969-4.5625-0.1757813
	C53.7880859,34.2792969,51.8945313,34.3007813,50,34.3007813s-3.7880859-0.0214844-5.6816406,0.0078125
	c-1.5234375,0.0214844-3.0429688,0.0878906-4.5625,0.1757813c-0.6582031,0.0371094-1.3105469,0.1757813-1.9677734,0.265625
	c-0.1474609,0.0214844-0.2636719,0.0683594-0.3427734,0.1484375l-2.7412109-0.8886719l0.0957031,0.7128906l2.5595703,1.59375
	c0.4492188,0.4824219,0.2792969,1.1054688,0.3457031,1.6621094c0.1328125,1.1230469,0.3847656,2.2148438,0.7216797,3.2910156
	c0.2089844,0.6582031,0.625,1.0664063,1.3134766,1.2167969c1.7089844,0.375,3.4335938,0.4902344,5.1767578,0.3320313
	c0.6699219-0.0625,1.2089844-0.3632813,1.5830078-0.9179688c0.5966797-0.890625,1.1777344-1.7910156,1.7578125-2.6914063
	c0.3886719-0.5976563,0.7246094-1.2324219,1.1542969-1.796875C49.5488281,37.2324219,49.765625,37.1230469,50,37.0839844
	c0.234375,0.0390625,0.4511719,0.1484375,0.5878906,0.328125c0.4296875,0.5644531,0.765625,1.1992188,1.1542969,1.796875
	C52.3222656,40.109375,52.9033203,41.0097656,53.5,41.9003906c0.3740234,0.5546875,0.9121094,0.8554688,1.5830078,0.9179688
	c1.7431641,0.1582031,3.4677734,0.0429688,5.1767578-0.3320313c0.6875-0.1503906,1.1044922-0.5585938,1.3134766-1.2167969
	c0.3369141-1.0761719,0.5888672-2.1679688,0.7216797-3.2910156c0.0664063-0.5566406-0.1044922-1.1796875,0.3457031-1.6621094
	l2.5595703-1.59375l0.0957031-0.7128906L62.5546875,34.8984375z M48.9785156,36.2832031
	c-0.0332031,0.2167969-0.078125,0.4375-0.1542969,0.6425781c-0.6552734,1.7539063-1.4951172,3.40625-2.7226563,4.8398438
	c-0.25,0.2929688-0.5410156,0.5117188-0.9179688,0.5683594c-0.7050781,0.1054688-2.0585938,0.2578125-3.1992188,0.1640625
	c-1.1416016-0.09375-1.4277344-0.2460938-2.1210938-0.4414063c-0.4023438-0.1132813-0.7597656-0.3789063-0.9140625-0.8105469
	c-0.5957031-1.6542969-0.7675781-3.3515625-0.4785156-5.0917969c0.0839844-0.5097656,0.3730469-0.8320313,0.8613281-0.921875
	c0.6923828-0.1289063,1.3916016-0.2910156,2.0869141-0.2910156c1.7353516,0,3.4697266,0.0625,5.2041016,0.1445313
	c0.6035156,0.0273438,1.2109375,0.1503906,1.7988281,0.2988281C48.9296875,35.5117188,49.0566406,35.7695313,48.9785156,36.2832031z
	 M61.0507813,41.2460938c-0.1542969,0.4316406-0.5117188,0.6972656-0.9140625,0.8105469
	c-0.6933594,0.1953125-0.9794922,0.3476563-2.1210938,0.4414063c-1.140625,0.09375-2.4941406-0.0585938-3.1992188-0.1640625
	c-0.3769531-0.0566406-0.6679688-0.2753906-0.9179688-0.5683594c-1.2275391-1.4335938-2.0673828-3.0859375-2.7226563-4.8398438
	C51.0996094,36.7207031,51.0546875,36.5,51.0214844,36.2832031c-0.078125-0.5136719,0.0488281-0.7714844,0.5566406-0.8984375
	c0.5878906-0.1484375,1.1953125-0.2714844,1.7988281-0.2988281c1.734375-0.0820313,3.46875-0.1445313,5.2041016-0.1445313
	c0.6953125,0,1.3945313,0.1621094,2.0869141,0.2910156c0.4882813,0.0898438,0.7773438,0.4121094,0.8613281,0.921875
	C61.8183594,37.8945313,61.6464844,39.5917969,61.0507813,41.2460938z"/>
<path class="st9" d="M47.6552734,99.9414063c0.7773438,0.0361328,1.5576172,0.0595703,2.34375,0.0595703
	c0.6083984,0,1.2109375-0.0244141,1.8134766-0.0458984V68.2138672h-4.1572266V99.9414063z"/>
<circle class="st1" cx="49.8525391" cy="82.6005859" r="0.6416016"/>
<circle class="st1" cx="49.8525391" cy="94.9985352" r="0.6411133"/>
<polygon class="st9" points="38.9970703,61.8935547 33.9804688,66.4433594 45.7880859,77.34375 49.5849609,68.6523438 "/>
<polygon class="st9" points="59.9921875,61.8935547 65.0087891,66.4433594 54.2509766,77.34375 49.5849609,68.6523438 "/>
<path class="st9" d="M58.5634766,83.6523438h8.5507813c0,0,1.6660156,8.1728516-4.2753906,8.1728516
	C62.8388672,91.8251953,57.0693359,91.9648438,58.5634766,83.6523438z"/>
<path class="st9" d="M32.484375,83.6523438h8.5498047c0,0,1.6669922,8.1728516-4.2744141,8.1728516
	C36.7597656,91.8251953,30.9902344,91.9648438,32.484375,83.6523438z"/>
<path class="st3" d="M50.0302734,0v100C77.6308594,99.9824219,100,77.6035156,100,50S77.6308594,0.0175781,50.0302734,0z"/>
</svg>
