<?xml version="1.0" encoding="utf-8"?>
<svg version="1.1" id="avatar-developer" xmlns="http://www.w3.org/2000/svg" xmlns:xlink="http://www.w3.org/1999/xlink" x="0px" y="0px"
	 width="100px" height="100px" viewBox="0 0 100 100" style="enable-background:new 0 0 100 100;" xml:space="preserve">
	<style type="text/css">
	<![CDATA[
		.st0{fill:#AAAAAA;}
		.st1{fill:#FFC088;stroke:#FFC088;stroke-width:0.75;}
		.st2{fill:#F2F2F2;}
		.st3{display:inline;fill:#603813;}
		.st4{display:inline;fill:#FFC088;}
		.st5{display:inline;fill:#FFE2B5;}
		.st6{opacity:0.1;fill:#FFFFFF;enable-background:new;}
		.st7{fill:#603813;}
		.st8{fill:#FFC088;}
		.st9{fill:#FFE2B5;}
		.st10{fill:#FFFFFF;}
		.st11{display:inline;}
		.st12{fill:#323E4C;}
		.st14{display:none;}
		.st15{fill:#445566;}
	]]>
	</style>
	<circle class="st0" cx="50" cy="50" r="50"/>
	<path class="st9" d="M78.7841797,74.6015625C77.6201172,69.5595703,58.34375,64.6279297,58.34375,64.6279297v-9.4785156h-8.3134766
		h-9.5v9.4785156c0,0-19.0732422,4.9316406-20.2373047,9.9736328c-1.1630859,5.0419922,29.7373047,23.9287109,29.7373047,23.9287109
		S79.9482422,79.6435547,78.7841797,74.6015625z"/>
	<path class="st15" d="M49.9990234,100.0009766c12.2529297,0,23.46875-4.4140625,32.1640625-11.7294922
		c-1.0654297-4.3076172-2.6660156-10.8203125-3.4072266-14.0322266c-0.8310547-3.5986328-10.8662109-7.1396484-16.5488281-8.8730469
		c-0.3789063-0.0117188-0.7558594-0.0175781-1.1318359-0.0117188l-11.0449219,3.8671875l-11.8828125-3.5048828
		c-0.4951172-0.0068359-0.9931641,0.0058594-1.4921875,0.0273438c-5.6396484,1.7382813-15.5341797,5.2685547-16.3623047,8.8574219
		c-0.6992188,3.0322266-1.9824219,9.0068359-2.8955078,13.2910156
		C26.1523438,95.4316406,37.5390625,100.0009766,49.9990234,100.0009766z"/>
	<polygon class="st8" points="58.34375,57.1962891 52.4931641,59.6699219 40.5302734,63.0449219 40.5302734,55.1494141
		58.34375,55.1494141 "/>
	<g class="st14">
		<path class="st5" d="M69.8505859,70.3632813c0,0-8.7080078-4.2324219-7.6494141,3.1757813
			c1.0576172,7.4082031,7.0341797,11.8183594,8.2792969,11.90625S69.8505859,70.3632813,69.8505859,70.3632813z"/>
		<path class="st5" d="M119.3876953,70.3632813c0,0,8.7099609-4.2324219,7.6513672,3.1757813s-7.0351563,11.8183594-8.28125,11.90625
			C117.5136719,85.5332031,119.3876953,70.3632813,119.3876953,70.3632813z"/>
		<path class="st3" d="M119.9101563,48.4482422L119.9101563,48.4482422 M119.890625,43.2900391h-0.0019531H70.3652344
			c-1.2177734,0-2.3789063,0.8183594-3.1972656,1.7246094c-0.8164063,0.9023438-1.2128906,2.2626953-1.0898438,3.4736328
			l5.0664063,50.0322266c0.1464844,1.4394531,1.0058594,2.7480469,2.2890625,3.4199219l14.296875,7.6728516
			c0.6171875,0.3222656,1.3027344,0.6767578,2,0.6767578h9.8925781c0.6015625,0,1.1972656-0.2929688,1.7451172-0.5351563
			l13.4951172-7.2851563c1.3730469-0.6083984,2.3300781-1.9296875,2.5253906-3.4179688l6.7539063-50.1308594
			c0.0371094-0.2265625,0.0566406-0.7714844,0.0566406-1.0078125
			C124.1992188,45.5341797,122.2705078,43.2900391,119.890625,43.2900391L119.890625,43.2900391z"/>
		<g class="st11">
			<path class="st9" d="M94.4824219,104.4570313c-0.3486328,0-5.4433594,2.5068359-5.7529297,2.3447266l-14.2978516-7.1103516
				c-0.640625-0.3339844-1.0703125-0.78125-1.1435547-1.5019531l-5.0673828-49.8623047
				c-0.0605469-0.6074219,0.1376953-1.5419922,0.5449219-1.9931641c0.4101563-0.4521484,0.9902344-1.0439453,1.5996094-1.0439453
				h49.5234375c0.6210938,0,1.2099609,0.6484375,1.6191406,1.1152344c0.4091797,0.4648438,0.5976563,1.2763672,0.5166016,1.8896484
				l-6.7705078,50.9501953c-0.0976563,0.7441406-0.5771484,1.4306641-1.2636719,1.7353516l-13.4941406,5.8583984
				C100.2207031,106.9599609,94.4824219,104.4570313,94.4824219,104.4570313z"/>
		</g>
		<g class="st11">
			<path class="st1" d="M94.5322266,95.1269531c-2.4755859,0-8.4169922,1.0136719-8.4169922,1.0136719
				c2.9707031,2.0097656,8.4169922,3.6738281,8.4169922,3.6738281s5.4443359-1.6640625,8.4150391-3.6738281
				C102.9472656,96.140625,97.0078125,95.1269531,94.5322266,95.1269531z"/>
			<path class="st10" d="M88.3144531,96.6445313c0,0,4.9521484,0.0605469,12.4355469,0
				C100.75,96.6445313,95.6523438,98.9873047,88.3144531,96.6445313z"/>
		</g>
		<path class="st3" d="M108.4570313,103.9775391c-0.7080078-5.4423828-2.6660156-9.3603516-5.8203125-11.6416016
			c-3.5087891-2.5410156-13.09375-2.5615234-16.8222656,0.1630859c-3.15625,2.3056641-5.1074219,6.1689453-5.7988281,11.4785156
			c-0.0644531,0.5029297,0.2890625,0.9638672,0.7910156,1.0283203c0.0410156,0.0058594,0.0820313,0.0078125,0.1201172,0.0078125
			c0.4541016,0,0.8486328-0.3359375,0.9091797-0.7988281c0.6210938-4.7792969,2.3183594-8.2177734,5.0400391-10.21875
			c3.4501953-2.5351563,11.4423828-2.5214844,14.6855469-0.1738281c2.7275391,1.9736328,4.4365234,5.4697266,5.0771484,10.3925781
			c0.0585938,0.4628906,0.4541016,0.7988281,0.9082031,0.7988281c0.0390625,0,0.0791016-0.0019531,0.1191406-0.0078125
			C108.1679688,104.9414063,108.5224609,104.4804688,108.4570313,103.9775391z"/>
		<path class="st3" d="M66.5097656,52.9482422c0,0-7.7490234-35.8173828,43.6152344-27.7314453
			c0,0,14.7294922,3.1591797,15.0839844-2.6152344c0,0,4.90625,6.7412109-2.1835938,13.0644531
			c0,0,9.828125,1.2714844,11.96875-2.3007813c0,0-1.4208984,10.2919922-10.8515625,16.4707031
			C114.7119141,56.0136719,99.8203125,62.5712891,66.5097656,52.9482422z"/>
		<path class="st4" d="M110.8583984,73.8476563c0,0-5.7929688-2.4951172-8.84375,1.1884766
			C102.0146484,75.0361328,107.1074219,79.9980469,110.8583984,73.8476563z"/>
		<path class="st4" d="M79.0859375,73.8476563c0,0,5.7929688-2.4951172,8.84375,1.1884766
			C87.9296875,75.0361328,82.8369141,79.9980469,79.0859375,73.8476563z"/>
	</g>
	<path class="st9" d="M64.8447266,21.8535156L64.8447266,21.8535156 M64.8330078,19.5224609h-0.0009766H35.4248047
		c-0.7236328,0-1.4130859,0.1201172-1.8974609,0.6572266c-0.4863281,0.5361328-0.7197266,1.1611328-0.6474609,1.8798828
		l3.0078125,29.6171875c0.0869141,0.8554688,0.5966797,1.5869141,1.3583984,1.9853516l8.4902344,4.6025391
		c0.3662109,0.1914063,0.7734375,0.4482422,1.1865234,0.4482422h5.8759766c0.3564453,0,0.7089844-0.2431641,1.0351563-0.3867188
		l8.0126953-4.8955078c0.8164063-0.3623047,1.3847656-1.1621094,1.5009766-2.046875l4.0097656-29.2412109
		c0.0214844-0.1347656,0.0332031-0.0966797,0.0332031-0.2373047C67.390625,20.4921875,66.2460938,19.5224609,64.8330078,19.5224609
		L64.8330078,19.5224609z"/>
	<path class="st9" d="M46.9228516,56.9316406c-0.2060547,0-0.4091797,0.0332031-0.5927734-0.0625l-8.4902344-4.40625
		c-0.3808594-0.1982422-0.6357422-0.5546875-0.6787109-0.9814453l-3.0087891-29.6542969
		c-0.0371094-0.3603516,0.0810547-0.8701172,0.3242188-1.1386719c0.2421875-0.2675781,0.5859375-0.5722656,0.9482422-0.5722656
		h29.4072266c0.3681641,0,0.7177734,0.3154297,0.9619141,0.5927734c0.2421875,0.2763672,0.3535156,0.7236328,0.3056641,1.0878906
		l-4.0195313,30.2373047c-0.0595703,0.4423828-0.3427734,0.8398438-0.75,1.0214844l-8.0126953,3.8398438
		c-0.1640625,0.0712891-0.3398438,0.0361328-0.5185547,0.0361328H46.9228516z"/>
	<path class="st1" d="M49.7753906,49.5712891c-1.4707031,0-4.9970703,0.6015625-4.9970703,0.6015625
		c1.7626953,1.1933594,4.9970703,2.1816406,4.9970703,2.1816406s3.2333984-0.9882813,4.9970703-2.1816406
		C54.7724609,50.1728516,51.2441406,49.5712891,49.7753906,49.5712891z"/>
	<path class="st10" d="M46.0830078,50.4707031c0,0,2.9404297,0.0371094,7.3837891,0
		C53.4667969,50.4707031,50.4404297,51.8623047,46.0830078,50.4707031z"/>
	<polygon class="st7" points="39.6669922,31.7167969 46.8876953,32.7646484 46.5839844,34.3691406 38.1230469,33.3359375 		"/>
	<polygon class="st7" points="60.3291016,31.9238281 53.0927734,32.8574219 53.3710938,34.4677734 61.8466797,33.5654297 		"/>
	<path class="st7" d="M66.2880859,15.3623047c0,0-9.1542969,9.9794922-16.7314453,10.3115234
		c-7.5761719,0.3330078-14.4306641,3.6601563-15.6787109,8.6494141
		c-1.2460938,4.9902344-11.8359375-21.8720703,12.4160156-24.6162109
		C60.9902344,8.0429688,66.2880859,15.3623047,66.2880859,15.3623047z"/>
	<path class="st9" d="M35.1201172,34.8671875c0,0-5.171875-2.5146484-4.5439453,1.8847656
		c0.6279297,4.3984375,4.1767578,7.0175781,4.9169922,7.0693359C36.2324219,43.875,35.1201172,34.8671875,35.1201172,34.8671875z"/>
	<path class="st9" d="M64.5341797,34.8671875c0,0,5.1708984-2.5146484,4.5429688,1.8847656
		c-0.6279297,4.3984375-4.1767578,7.0175781-4.9169922,7.0693359C63.4208984,43.875,64.5341797,34.8671875,64.5341797,34.8671875z"
		/>
	<path class="st7" d="M63.5703125,14.8027344c0,0,0,1.2470703,3.2070313,1.6035156
		c3.2060547,0.3554688,0.0449219,17.3349609,0.0449219,17.3349609l-2.6933594,4.9472656
		c0.1455078-7.9375-4.8339844-16.5810547-4.8339844-16.5810547S62.8134766,14.9589844,63.5703125,14.8027344z"/>
	<polygon class="st7" points="49.4365234,46.4814453 42.9726563,48.1689453 42.4560547,50.9902344 49.4365234,49.1152344 	"/>
	<polygon class="st7" points="50.0302734,46.4814453 56.5009766,48.1689453 57.0146484,50.9902344 50.0302734,49.1152344 	"/>
	<polygon class="st7" points="48.6484375,53.3681641 49.6669922,55.2529297 50.7226563,53.3681641 	"/>
	<path class="st7" d="M42.0458984,26.7617188c0,0-8.9833984,3.8496094-5.4541016,12.03125
		c0,0-3.6894531-2.7265625-2.8876953-8.8222656"/>
	<path class="st8" d="M59.1611328,37.0732422c0,0-3.4404297-1.4814453-5.2519531,0.7060547
		C53.9091797,37.7792969,56.9335938,40.7255859,59.1611328,37.0732422z"/>
	<path class="st8" d="M40.3447266,37.0732422c0,0,3.4404297-1.4814453,5.2519531,0.7060547
			C45.5966797,37.7792969,42.5722656,40.7255859,40.3447266,37.0732422z"/>
	<path class="st12" d="M47.6552734,99.9414063c0.7773438,0.0361328,1.5576172,0.0595703,2.34375,0.0595703
		c0.6083984,0,1.2109375-0.0244141,1.8134766-0.0458984V68.2138672h-4.1572266V99.9414063z"/>
	<circle class="st2" cx="49.8525391" cy="82.6005859" r="0.6416016"/>
	<circle class="st2" cx="49.8525391" cy="94.9985352" r="0.6411133"/>
	<polygon class="st12" points="38.9970703,61.8935547 33.9804688,66.4433594 45.7880859,77.34375 49.5849609,68.6523438 "/>
	<polygon class="st12" points="59.9921875,61.8935547 65.0087891,66.4433594 54.2509766,77.34375 49.5849609,68.6523438 "/>
	<path class="st12" d="M58.5634766,83.6523438h8.5507813c0,0,1.6660156,8.1728516-4.2753906,8.1728516
		C62.8388672,91.8251953,57.0693359,91.9648438,58.5634766,83.6523438z"/>
	<path class="st12" d="M32.484375,83.6523438h8.5498047c0,0,1.6669922,8.1728516-4.2744141,8.1728516
		C36.7597656,91.8251953,30.9902344,91.9648438,32.484375,83.6523438z"/>
	<path class="st6" d="M50.0302734,0v100C77.6308594,99.9824219,100,77.6035156,100,50S77.6308594,0.0175781,50.0302734,0z"/>
</svg>
