<?xml version="1.0" encoding="utf-8"?>
<svg version="1.1" id="avatar-designer" xmlns="http://www.w3.org/2000/svg" xmlns:xlink="http://www.w3.org/1999/xlink" x="0px"
	 y="0px" width="100px" height="100px" viewBox="0 0 100 100" style="enable-background:new 0 0 100 100;" xml:space="preserve">
<style type="text/css">
<![CDATA[
	.st0{fill:#AAAAAA;}
	.st1{fill:#E6E6E6;}
	.st2{opacity:0.2;enable-background:new;}
	.st3{fill:#F2F2F2;}
	.st4{fill:#FFC088;stroke:#FFC088;stroke-width:0.75;}
	.st5{opacity:0.1;fill:#FFFFFF;enable-background:new;}
	.st6{fill:#FFC088;}
	.st7{fill:#FFE2B5;}
	.st8{fill:#FFFFFF;}
	.st9{fill:#323E4C;}
	.st10{fill:#3873B5;}
]]>
</style>
<circle class="st0" cx="50" cy="50" r="50"/>
<path class="st7" d="M50,100c12.1816406,0,23.3427734-4.3613281,32.0175781-11.6015625
	c-0.984375-4.3066406-2.4335938-10.6445313-3.1621094-13.796875c-1.1640625-5.0429688-20.3691406-9.9746094-20.3691406-9.9746094
	v-9.3984375h-8.90625h-8.90625v9.3984375c0,0-19.1445313,4.9316406-20.3085938,9.9746094
	c-0.6962891,3.0136719-2.0625,8.9394531-3.0488281,13.21875C26.0820313,95.4023438,37.5,100,50,100z"/>
<polygon class="st6" points="58.4863281,57.1953125 52.6357422,59.6699219 40.6738281,63.0449219 40.6738281,55.2285156 
	58.4863281,55.2285156 "/>
<path class="st7" d="M34.8105469,35.0039063c0,0-5.1699219-2.5136719-4.5419922,1.8867188
	c0.6279297,4.3984375,4.1767578,7.0175781,4.9160156,7.0683594C35.9238281,44.0117188,34.8105469,35.0039063,34.8105469,35.0039063z
	"/>
<path class="st7" d="M64.2246094,35.0039063c0,0,5.171875-2.5136719,4.5429688,1.8867188
	c-0.6269531,4.3984375-4.1757813,7.0175781-4.9160156,7.0683594C63.1132813,44.0117188,64.2246094,35.0039063,64.2246094,35.0039063
	z"/>
<path class="st9" d="M64.5351563,21.9902344L64.5351563,21.9902344 M64.5244141,19.0078125h-0.0009766h-29.40625
	c-0.7246094,0-1.4140625,0.4472656-1.8984375,0.984375c-0.4853516,0.5351563-0.7207031,1.3222656-0.6474609,2.0429688
	l3.0078125,29.6992188c0.0869141,0.8535156,0.5966797,1.6269531,1.3583984,2.0253906l8.4902344,4.59375
	c0.3671875,0.1914063,0.7734375,0.4375,1.1875,0.4375h5.875c0.3554688,0,0.7099609-0.2128906,1.0351563-0.3574219
	l8.0136719-4.3457031c0.8144531-0.3613281,1.3837891-1.1542969,1.5-2.0390625l4.0097656-29.7714844
	c0.0214844-0.1347656,0.0332031-0.421875,0.0332031-0.5625C67.0820313,20.3027344,65.9375,19.0078125,64.5244141,19.0078125
	L64.5244141,19.0078125z"/>
<path class="st7" d="M46.6152344,56.4160156c-0.2070313,0-0.4101563,0.359375-0.59375,0.2636719L37.53125,52.4394531
	c-0.3808594-0.1992188-0.6357422-0.4746094-0.6796875-0.9023438L33.84375,21.9238281
	c-0.0361328-0.359375,0.0810547-0.8789063,0.3232422-1.1464844c0.2431641-0.2675781,0.5869141-0.5820313,0.9501953-0.5820313
	h29.40625c0.3671875,0,0.7177734,0.34375,0.9609375,0.6210938c0.2421875,0.2773438,0.3544922,0.7382813,0.3066406,1.1035156
	l-4.0214844,30.2441406c-0.0576172,0.4414063-0.3417969,0.8457031-0.7480469,1.0253906l-8.0136719,3.515625
	c-0.1630859,0.0722656-0.3398438-0.2890625-0.5175781-0.2890625H46.6152344z"/>
<path class="st1" d="M50,100c12.1660156,0,23.3144531-4.3496094,31.984375-11.5742188
	c-0.9941406-4.3066406-2.4609375-10.6640625-3.1894531-13.8242188c-0.828125-3.5917969-10.7802734-7.1269531-16.4375-8.8632813
	c-0.4492188-0.0175781-0.8984375-0.0273438-1.3457031-0.0214844L49.5800781,69.375l-11.4316406-3.6582031
	c-0.4472656-0.0058594-0.8964844,0.0039063-1.3457031,0.0214844c-5.6572266,1.7363281-15.609375,5.2714844-16.4375,8.8632813
	c-0.6962891,3.0136719-2.0625,8.9394531-3.0488281,13.21875C26.0820313,95.4023438,37.5,100,50,100z"/>
<path class="st2" d="M51.1103516,68.8867188L49.5800781,69.375l-1.5302734-0.4882813H28.078125
	c-2.0957031,0.9082031-4.0429688,1.9140625-5.4658203,2.96875H76.546875c-1.421875-1.0546875-3.3691406-2.0605469-5.4648438-2.96875
	H51.1103516z"/>
<path class="st2" d="M18.9443359,80.7617188h61.2724609c-0.2402344-1.0351563-0.4707031-2.0390625-0.6855469-2.96875H19.6289063
	C19.4140625,78.7246094,19.1835938,79.7265625,18.9443359,80.7617188z"/>
<path class="st2" d="M17.3164063,87.8203125c0.7392578,0.640625,1.5058594,1.2519531,2.2822266,1.8476563h60.8291016
	c0.5273438-0.4042969,1.046875-0.8164063,1.5566406-1.2421875c-0.1269531-0.5449219-0.2597656-1.125-0.3984375-1.7265625H17.5742188
	C17.4863281,87.0820313,17.3994141,87.4589844,17.3164063,87.8203125z"/>
<path class="st2" d="M38.1503906,98.5742188h23.6982422c2.9960938-0.7285156,5.8857422-1.7265625,8.6425781-2.96875H29.5214844
	C32.2753906,96.8457031,35.1582031,97.8457031,38.1503906,98.5742188z"/>
<path class="st2" d="M78.0820313,73.2597656c-0.6582031-0.8046875-1.7011719-1.5957031-2.96875-2.3535156v22.3320313
	c1.0136719-0.5898438,2.0019531-1.2226563,2.96875-1.8808594V73.2597656z"/>
<path class="st2" d="M66.2060547,66.9980469v30.3027344c1.0029297-0.34375,1.9960938-0.7109375,2.9697266-1.1152344V68.0976563
	C68.1787109,67.7050781,67.1767578,67.3378906,66.2060547,66.9980469z"/>
<path class="st2" d="M57.2988281,66.90625v32.5546875c1-0.1464844,1.9892578-0.3242188,2.96875-0.5292969V65.9550781
	L57.2988281,66.90625z"/>
<path class="st2" d="M49.5800781,69.375l-1.1875-0.3789063v30.9667969C48.9277344,99.9804688,49.4609375,100,50,100
	c0.4560547,0,0.9082031-0.0175781,1.3613281-0.03125V68.8046875L49.5800781,69.375z"/>
<path class="st2" d="M39.4863281,66.1445313v32.7324219c0.9785156,0.2109375,1.96875,0.3925781,2.96875,0.5449219V67.0957031
	L39.4863281,66.1445313z"/>
<path class="st2" d="M30.578125,67.8671875v28.2050781c0.9746094,0.4121094,1.9648438,0.7890625,2.9697266,1.1386719V66.7929688
	C32.5839844,67.1230469,31.5830078,67.4824219,30.578125,67.8671875z"/>
<path class="st2" d="M21.671875,72.6308594v18.5449219c0.9667969,0.6679688,1.9550781,1.3046875,2.96875,1.9042969v-22.515625
	C23.453125,71.2285156,22.4267578,71.921875,21.671875,72.6308594z"/>
<path class="st10" d="M47.7988281,99.9433594C48.5292969,99.9765625,49.2617188,100,50,100
	c0.65625,0,1.3056641-0.0253906,1.9550781-0.0488281V68.2929688h-4.15625V99.9433594z"/>
<polygon class="st9" points="37.9335938,33.6894531 40.7021484,30.7714844 47.375,32.4609375 46.5380859,33.3476563 41.375,32.0625 
	"/>
<polygon class="st9" points="61.3271484,33.8007813 58.6210938,30.8261719 51.9140625,32.3730469 52.7324219,33.2773438 
	57.921875,32.1015625 "/>
<path class="st4" d="M49.4667969,49.7089844c-1.4707031,0-4.9980469,0.6015625-4.9980469,0.6015625
	c1.7636719,1.1933594,4.9980469,2.1816406,4.9980469,2.1816406s3.2324219-0.9882813,4.9970703-2.1816406
	C54.4638672,50.3105469,50.9355469,49.7089844,49.4667969,49.7089844z"/>
<path class="st8" d="M45.7753906,50.609375c0,0,2.9394531,0.0371094,7.3828125,0
	C53.1582031,50.609375,50.1318359,52,45.7753906,50.609375z"/>
<path class="st9" d="M41.6162109,8.0976563c-1.9277344-1.0507813-1.7685547-2.671875-1.7685547-2.671875
	s-0.3671875,1.4980469,0.4277344,2.7832031c-3.8876953-0.7851563-3.6328125-3.3183594-3.6328125-3.3183594
	s-0.5917969,2.4101563,1.3525391,3.7324219c-2.5615234,0.2304688-5.8896484,0.1191406-6.0185547-1.9785156
	c0,0-2.9140625,4.0019531,1.296875,7.7578125c0,0-0.0058594,0-0.0078125,0
	c-3.9013672-1.0605469-3.6357422-3.7519531-3.6357422-3.7519531s-0.5673828,2.28125,0.9619141,3.8769531
	c-1.7128906-0.0390625-3.7382813-0.34375-4.4257813-1.4921875c0,0,0.84375,6.1113281,6.4433594,9.7792969
	c5.5996094,3.6699219,14.4433594,7.5625,34.2226563,1.8476563C66.8320313,24.6621094,71.3564453,3.7226563,41.6162109,8.0976563z"/>
<circle class="st3" cx="49.8525391" cy="82.6005859" r="0.6416016"/>
<circle class="st3" cx="49.8525391" cy="94.9980469" r="0.640625"/>
<polygon class="st10" points="38.9980469,61.8925781 33.9814453,66.4433594 45.7871094,77.34375 49.5859375,68.6523438 "/>
<polygon class="st10" points="59.9921875,61.8925781 65.0078125,66.4433594 54.2519531,77.34375 49.5859375,68.6523438 "/>
<path class="st6" d="M59.3037109,37.1523438c0,0-3.4394531-1.4824219-5.2509766,0.7050781
	C54.0527344,37.8574219,57.0761719,40.8046875,59.3037109,37.1523438z"/>
<path class="st6" d="M40.4375,37.1523438c0,0,3.4394531-1.4824219,5.2519531,0.7050781
	C45.6894531,37.8574219,42.6650391,40.8046875,40.4375,37.1523438z"/>
<path class="st5" d="M50.1738281,0.0039063v99.9921875C77.7070313,99.9003906,100,77.5546875,100,50
	C100,22.4433594,77.7070313,0.0976563,50.1738281,0.0039063z"/>
</svg>
