<?xml version="1.0" encoding="utf-8"?>
<svg version="1.1" baseProfile="basic" id="Ebene_4"
	 xmlns="http://www.w3.org/2000/svg" xmlns:xlink="http://www.w3.org/1999/xlink" x="0px" y="0px" width="32px" height="31px"
	 viewBox="0 0 32 31" xml:space="preserve">
<linearGradient id="redaxscript" gradientUnits="userSpaceOnUse" x1="16" y1="0" x2="16" y2="31">
	<stop  offset="0" style="stop-color:#447ECD"/>
	<stop  offset="1" style="stop-color:#3975B2"/>
</linearGradient>
<path fill="url(#redaxscript)" d="M17,0v2c4.837,0-0.713,7.796-2,9c-1.287-1.204-6.763-8.188-2-8V1H0v2
	c5.112,0,8.246,12.031,8.246,12.031S4.749,27,0,27v2h12v-2c-5.334,0,1.713-7.796,3-9c1.287,1.204,9.332,11,4,11v2h13v-2
	c-5,0-11.154-13.969-11.154-13.969S25.678,2,30,2V0H17z"/>
</svg>
