<svg xmlns="http://www.w3.org/2000/svg" width="64" height="64" viewBox="-281.5 436 64 64"><linearGradient id="a" gradientUnits="userSpaceOnUse" x1="-249.541" y1="466.154" x2="-249.541" y2="404.154" gradientTransform="matrix(1 0 0 -1 .04 902.154)"><stop offset="0" stop-color="#447ECD"/><stop offset="1" stop-color="#3975B2"/></linearGradient><path fill="url(#a)" d="M-247.5 436v4c9.675 0-1.426 15.59-4 18-2.574-2.41-13.526-16.375-4-16v-4h-26v4c10.224 0 16.493 24.062 16.493 24.062S-272 490-281.5 490v4h24v-4c-10.667 0 3.426-15.59 6-18 2.574 2.41 18.665 22 8 22v4h26v-4c-10 0-22.31-27.938-22.31-27.938S-230.144 440-221.5 440v-4h-26z"/></svg>