<svg baseProfile="basic" xmlns="http://www.w3.org/2000/svg" xmlns:xlink="http://www.w3.org/1999/xlink" width="50" height="30" viewBox="0 0 50 30"><defs><path id="a" d="M0-.006h50v30.005h-50z"/></defs><clipPath id="b"><use xlink:href="#a" overflow="visible"/></clipPath><path clip-path="url(#b)" fill="#CB2023" d="M0-.006h50v30.005h-50z"/><defs><path id="c" d="M0-.006h50v30.005h-50z"/></defs><clipPath id="d"><use xlink:href="#c" overflow="visible"/></clipPath><path clip-path="url(#d)" fill="#F7DE2A" d="M4.812 10.854l.939-2.996-2.47-1.855 3.059-.006.952-2.99.952 2.991 3.059.007-2.473 1.855.938 2.995-2.477-1.846z"/><defs><path id="e" d="M0-.006h50v30.005h-50z"/></defs><clipPath id="f"><use xlink:href="#e" overflow="visible"/></clipPath><path clip-path="url(#f)" fill="#F7DE2A" d="M13.337 12.473l1.033.425.717-.874-.076 1.141 1.03.432-1.077.278-.082 1.141-.59-.969-1.08.273.713-.876z"/><defs><path id="g" d="M0-.006h50v30.005h-50z"/></defs><clipPath id="h"><use xlink:href="#g" overflow="visible"/></clipPath><path clip-path="url(#h)" fill="#F7DE2A" d="M18.925 6.72l-1.096-.198-.525 1.009-.157-1.132-1.095-.203.999-.503-.152-1.134.775.823 1.001-.5-.521 1.012z"/><defs><path id="i" d="M0-.006h50v30.005h-50z"/></defs><clipPath id="j"><use xlink:href="#i" overflow="visible"/></clipPath><path clip-path="url(#j)" fill="#F7DE2A" d="M16.597 11.845l.342-1.089-.898-.675 1.113-.003.346-1.086.346 1.088 1.113.002-.898.674.339 1.089-.9-.67z"/><defs><path id="k" d="M0-.006h50v30.005h-50z"/></defs><clipPath id="l"><use xlink:href="#k" overflow="visible"/></clipPath><path clip-path="url(#l)" fill="#F7DE2A" d="M13.393 1.901l1.008.481.761-.835-.133 1.136 1.007.487-1.092.22-.139 1.136-.54-1.001-1.092.216.756-.839z"/></svg>