<svg baseProfile="basic" xmlns="http://www.w3.org/2000/svg" xmlns:xlink="http://www.w3.org/1999/xlink" width="50" height="30" viewBox="0 0 50 30"><defs><path id="a" d="M0-.006h50V30H0z"/></defs><clipPath id="b"><use xlink:href="#a" overflow="visible"/></clipPath><path clip-path="url(#b)" fill="#CB2023" d="M0-.006h50V30H0z"/><defs><path id="c" d="M0-.006h50V30H0z"/></defs><clipPath id="d"><use xlink:href="#c" overflow="visible"/></clipPath><path clip-path="url(#d)" fill="#F7DE2A" d="M4.812 10.854l.94-2.996-2.47-1.855 3.058-.006.952-2.99.952 2.99 3.06.008L8.83 7.86l.938 2.995L7.29 9.01z"/><defs><path id="e" d="M0-.006h50V30H0z"/></defs><clipPath id="f"><use xlink:href="#e" overflow="visible"/></clipPath><path clip-path="url(#f)" fill="#F7DE2A" d="M13.337 12.473l1.033.425.717-.874-.076 1.14 1.03.433-1.076.278-.082 1.14-.59-.968-1.08.273.713-.876z"/><defs><path id="g" d="M0-.006h50V30H0z"/></defs><clipPath id="h"><use xlink:href="#g" overflow="visible"/></clipPath><path clip-path="url(#h)" fill="#F7DE2A" d="M18.925 6.72l-1.096-.198-.526 1.01-.157-1.133-1.095-.204 1-.503-.153-1.134.774.822 1-.5-.52 1.012z"/><defs><path id="i" d="M0-.006h50V30H0z"/></defs><clipPath id="j"><use xlink:href="#i" overflow="visible"/></clipPath><path clip-path="url(#j)" fill="#F7DE2A" d="M16.597 11.845l.342-1.09-.9-.674 1.114-.002.346-1.086.346 1.088 1.113.002-.9.674.34 1.09-.9-.67z"/><defs><path id="k" d="M0-.006h50V30H0z"/></defs><clipPath id="l"><use xlink:href="#k" overflow="visible"/></clipPath><path clip-path="url(#l)" fill="#F7DE2A" d="M13.393 1.9l1.008.482.762-.835-.133 1.136 1.006.487-1.092.22-.14 1.136-.54-1-1.09.215.755-.838z"/></svg>